<svg xmlns="http://www.w3.org/2000/svg" width="70.2" height="68.4" viewBox="0 0 70.2 68.4"><style type="text/css">.st0{fill:#FFFFFF;} .st1{fill:#A41E24;}</style><circle class="st0" cx="32.9" cy="37" r="20.7"/><path class="st1" d="M38.6 32.7h-3.8v-2.5c0-.9.6-1.2 1.1-1.2h2.7v-4.1h-3.7c-4.1 0-5.1 3.1-5.1 5.1v2.8h-2.4v4.2h2.4v12.1h5v-12.1h3.4l.4-4.3z"/><circle class="st0" cx="33.6" cy="36" r="20.7"/><path class="st1" d="M45.9 28.4c-.9.4-1.9.7-2.9.8 1-.6 1.8-1.6 2.2-2.8-1 .6-2.1 1-3.2 1.2-.9-1-2.2-1.6-3.7-1.6-2.8 0-5.1 2.3-5.1 5.1 0 .4 0 .8.1 1.2-4.1-.3-7.8-2.3-10.3-5.4-.4.7-.7 1.6-.7 2.5 0 1.8.9 3.3 2.2 4.2-.8 0-1.6-.3-2.3-.6v.1c0 2.4 1.7 4.5 4.1 5-.4.1-.9.2-1.3.2-.3 0-.6 0-1-.1.6 2 2.5 3.5 4.7 3.5-1.7 1.4-3.9 2.2-6.3 2.2-.4 0-.8 0-1.2-.1 2.2 1.4 4.9 2.3 7.7 2.3 9.3 0 14.4-7.7 14.4-14.4v-.7c1-.7 1.9-1.6 2.6-2.6z"/></svg>