<?xml version="1.0" encoding="utf-8"?>
<!-- Generator: Adobe Illustrator 18.1.1, SVG Export Plug-In . SVG Version: 6.00 Build 0)  -->
<!DOCTYPE svg PUBLIC "-//W3C//DTD SVG 1.1//EN" "http://www.w3.org/Graphics/SVG/1.1/DTD/svg11.dtd">
<svg version="1.1" id="Layer_1" xmlns="http://www.w3.org/2000/svg" xmlns:xlink="http://www.w3.org/1999/xlink" x="0px" y="0px"
	 width="70.2px" height="68.4px" viewBox="0 0 70.2 68.4" style="enable-background:new 0 0 70.2 68.4;" xml:space="preserve">
<style type="text/css">
	.st0{fill:#FFFFFF;}
	.st1{fill:#A41E24;}
</style>
<g>
	<circle class="st0" cx="32.9" cy="37" r="20.7"/>
	<path class="st1" d="M38.6,32.7h-3.8v-2.5c0-0.9,0.6-1.2,1.1-1.2c0.4,0,2.7,0,2.7,0v-4.1l-3.7,0c-4.1,0-5.1,3.1-5.1,5.1v2.8h-2.4
		V37h2.4c0,5.5,0,12.1,0,12.1h5c0,0,0-6.7,0-12.1h3.4L38.6,32.7z"/>
</g>
<g>
	<circle class="st0" cx="33.6" cy="36" r="20.7"/>
	<path class="st1" d="M45.9,28.4C45,28.8,44,29.1,43,29.2c1-0.6,1.8-1.6,2.2-2.8c-1,0.6-2.1,1-3.2,1.2c-0.9-1-2.2-1.6-3.7-1.6
		c-2.8,0-5.1,2.3-5.1,5.1c0,0.4,0,0.8,0.1,1.2C29.2,32,25.5,30,23,26.9c-0.4,0.7-0.7,1.6-0.7,2.5c0,1.8,0.9,3.3,2.2,4.2
		c-0.8,0-1.6-0.3-2.3-0.6c0,0,0,0,0,0.1c0,2.4,1.7,4.5,4.1,5c-0.4,0.1-0.9,0.2-1.3,0.2c-0.3,0-0.6,0-1-0.1c0.6,2,2.5,3.5,4.7,3.5
		c-1.7,1.4-3.9,2.2-6.3,2.2c-0.4,0-0.8,0-1.2-0.1c2.2,1.4,4.9,2.3,7.7,2.3c9.3,0,14.4-7.7,14.4-14.4c0-0.2,0-0.4,0-0.7
		C44.3,30.3,45.2,29.4,45.9,28.4z"/>
</g>
</svg>
